<?xml version="1.0" standalone="no"?>
<!DOCTYPE svg PUBLIC "-//W3C//DTD SVG 20010904//EN"
 "http://www.w3.org/TR/2001/REC-SVG-20010904/DTD/svg10.dtd">
<svg version="1.0" xmlns="http://www.w3.org/2000/svg"
 width="1900.000000pt" height="581.000000pt" viewBox="0 0 1900.000000 581.000000"
 preserveAspectRatio="xMidYMid meet">
<metadata>
Created by potrace 1.15, written by Peter Selinger 2001-2017
</metadata>
<g transform="translate(0.000000,581.000000) scale(0.100000,-0.100000)"
fill="#000000" stroke="none">
<path d="M2424 5799 c-2 -3 -47 -9 -100 -12 -53 -4 -102 -11 -108 -15 -6 -5
-40 -12 -75 -16 -35 -3 -69 -10 -75 -15 -6 -5 -37 -12 -68 -16 -32 -4 -58 -11
-58 -15 0 -4 -22 -10 -50 -14 -27 -4 -52 -11 -55 -15 -3 -5 -23 -12 -45 -16
-22 -4 -42 -11 -46 -16 -3 -5 -13 -9 -22 -9 -9 0 -30 -7 -46 -15 -15 -8 -33
-15 -40 -15 -6 -1 -29 -9 -51 -20 -22 -11 -46 -19 -52 -20 -7 0 -13 -4 -13
-10 0 -5 -5 -10 -11 -10 -15 0 -162 -70 -169 -81 -3 -4 -18 -11 -33 -14 -15
-4 -27 -11 -27 -16 0 -5 -6 -9 -14 -9 -8 0 -21 -6 -28 -12 -18 -17 -46 -35
-78 -50 -14 -7 -27 -15 -30 -18 -11 -11 -70 -50 -76 -50 -4 0 -17 -11 -29 -24
-12 -13 -26 -25 -32 -27 -49 -18 -445 -415 -462 -463 -2 -6 -7 -13 -11 -16
-14 -9 -80 -100 -80 -109 0 -5 -3 -11 -7 -13 -11 -5 -53 -66 -53 -77 0 -5 -4
-11 -8 -13 -11 -4 -82 -123 -82 -137 0 -6 -4 -11 -9 -11 -5 0 -12 -13 -16 -30
-4 -16 -10 -30 -15 -30 -5 0 -11 -13 -15 -30 -4 -16 -11 -30 -16 -30 -5 0 -9
-6 -9 -12 -1 -7 -9 -31 -20 -53 -11 -22 -19 -48 -20 -57 0 -9 -3 -19 -8 -21
-4 -3 -18 -38 -31 -79 -13 -40 -27 -80 -32 -89 -4 -9 -11 -34 -14 -55 -4 -22
-11 -48 -16 -59 -9 -20 -20 -77 -40 -205 -7 -45 -7 -71 0 -88 6 -13 7 -21 2
-18 -11 7 -23 -88 -25 -199 -1 -106 20 -351 33 -380 5 -11 13 -47 19 -80 15
-89 33 -159 43 -169 5 -6 9 -19 9 -30 0 -12 7 -34 15 -50 8 -15 15 -35 15 -43
0 -8 6 -27 13 -41 8 -15 21 -43 29 -62 37 -85 147 -300 159 -310 4 -3 9 -15
13 -27 4 -13 12 -23 17 -23 5 0 9 -7 9 -15 0 -9 7 -18 15 -21 8 -4 15 -12 15
-19 0 -6 8 -21 17 -33 10 -11 25 -30 33 -42 14 -21 41 -58 65 -88 5 -7 22 -27
37 -43 16 -16 28 -31 28 -33 0 -15 209 -226 223 -226 4 0 18 -11 30 -24 28
-30 235 -186 246 -186 5 0 11 -4 13 -8 4 -11 123 -82 137 -82 6 0 11 -4 11 -9
0 -7 234 -128 295 -152 11 -4 41 -17 67 -28 26 -12 51 -21 56 -21 5 0 23 -7
38 -15 16 -8 36 -15 45 -15 9 0 30 -7 45 -15 16 -8 41 -15 57 -15 15 0 27 -4
27 -9 0 -5 23 -12 52 -16 29 -4 59 -11 68 -16 18 -10 105 -26 210 -40 41 -6
91 -14 110 -19 38 -10 339 -33 405 -31 116 4 340 23 354 30 9 5 40 11 69 14
29 4 68 11 85 16 128 39 264 84 272 91 6 4 22 10 38 14 15 3 27 10 27 15 0 5
13 12 29 16 15 3 38 15 49 25 12 11 27 20 33 20 7 0 31 11 54 25 30 17 44 33
48 54 4 16 6 203 7 415 l0 386 -460 0 -460 0 0 225 0 225 680 0 679 0 3 -502
c2 -277 2 -622 0 -767 -3 -252 -3 -263 -22 -268 -11 -3 -20 -8 -20 -12 0 -3
-20 -17 -45 -31 -25 -14 -45 -28 -45 -32 0 -5 -6 -8 -14 -8 -8 0 -21 -6 -28
-13 -7 -6 -35 -23 -61 -37 -26 -13 -47 -28 -47 -31 0 -4 -13 -10 -30 -14 -16
-4 -30 -10 -30 -15 0 -5 -13 -11 -30 -15 -16 -4 -30 -11 -30 -16 0 -5 -5 -9
-11 -9 -11 0 -50 -16 -114 -45 -16 -8 -42 -17 -57 -21 -16 -3 -28 -10 -28 -14
0 -4 -20 -11 -45 -14 -25 -4 -45 -11 -45 -15 0 -5 -20 -12 -45 -15 -24 -4 -47
-11 -50 -15 -2 -5 -26 -12 -52 -16 -27 -4 -52 -10 -58 -13 -13 -9 -124 -29
-270 -50 -160 -22 -508 -22 -705 1 -205 23 -302 37 -325 47 -11 5 -45 13 -75
19 -92 17 -255 60 -276 73 -6 4 -30 10 -52 14 -23 4 -42 10 -42 14 0 4 -16 11
-36 15 -20 3 -44 10 -53 15 -22 12 -109 50 -115 50 -2 0 -34 13 -69 30 -36 16
-70 30 -76 30 -6 0 -11 4 -11 9 0 5 -12 12 -27 16 -15 3 -30 10 -33 13 -5 6
-37 25 -125 71 -16 9 -35 22 -43 28 -7 7 -20 13 -28 13 -8 0 -14 3 -14 8 0 4
-20 18 -45 32 -25 14 -45 28 -45 32 0 5 -5 8 -11 8 -6 0 -21 8 -34 18 -12 9
-33 24 -45 32 -12 8 -31 23 -42 32 -12 10 -24 18 -27 18 -3 0 -22 14 -41 30
-19 16 -39 33 -45 38 -80 62 -136 113 -275 252 -139 139 -192 197 -252 275 -5
6 -22 26 -39 45 l-31 35 6 -35 c4 -19 11 -36 16 -38 6 -2 10 -10 10 -18 0 -13
15 -46 69 -154 48 -93 66 -125 73 -128 5 -2 8 -9 8 -15 0 -12 147 -237 165
-252 6 -5 14 -15 16 -21 6 -16 57 -79 107 -131 23 -24 42 -47 42 -51 0 -7 197
-202 266 -262 21 -19 71 -60 109 -90 39 -30 71 -58 73 -62 2 -5 9 -8 16 -8 7
0 21 -9 31 -20 10 -11 24 -20 31 -20 7 0 14 -3 16 -7 5 -12 66 -53 78 -53 5 0
10 -3 10 -8 0 -4 21 -19 48 -32 26 -14 49 -28 52 -31 3 -3 28 -16 55 -30 28
-13 52 -27 55 -31 3 -3 18 -10 33 -13 15 -4 27 -11 27 -16 0 -5 5 -9 11 -9 7
0 30 -9 53 -19 83 -39 114 -51 130 -51 9 0 16 -4 16 -10 0 -5 16 -12 37 -16
20 -4 48 -13 62 -20 14 -8 35 -14 47 -14 11 0 24 -4 30 -9 5 -5 32 -14 59 -21
28 -6 77 -18 110 -27 33 -8 83 -19 110 -24 28 -5 71 -14 97 -20 132 -30 507
-51 683 -38 204 14 325 26 365 38 19 5 60 14 90 19 30 6 82 17 115 25 33 9 83
21 110 27 28 7 55 16 60 20 6 4 29 11 53 15 23 4 42 10 42 15 0 4 16 11 36 15
20 3 44 10 53 15 9 5 34 16 56 25 73 30 99 42 215 99 63 31 138 70 165 86 28
17 62 36 78 42 15 7 27 16 27 20 0 4 5 8 10 8 12 0 73 41 78 53 2 4 9 7 16 7
11 0 25 9 73 50 7 5 15 10 18 10 5 0 64 39 75 50 3 3 24 18 47 34 l43 29 2
526 c2 289 2 794 0 1123 l-2 596 -1133 4 c-622 2 -1140 0 -1150 -5 -16 -7 -17
-48 -15 -695 l3 -687 458 -3 457 -2 0 -35 c0 -19 -5 -35 -11 -35 -6 0 -25 -6
-42 -14 -37 -16 -100 -33 -177 -48 -30 -6 -60 -15 -67 -20 -18 -14 -402 -21
-528 -9 -192 18 -470 71 -526 101 -9 5 -33 12 -53 15 -20 4 -38 11 -41 15 -3
5 -23 11 -45 15 -22 4 -40 11 -40 15 0 5 -13 11 -29 15 -32 7 -316 149 -331
166 -3 3 -23 16 -45 29 -22 13 -42 26 -45 30 -3 3 -23 17 -45 32 -22 15 -53
39 -70 53 -16 13 -34 28 -40 32 -128 101 -192 165 -287 288 -5 6 -22 26 -38
45 -16 19 -32 43 -36 53 -3 9 -10 17 -15 17 -5 0 -9 7 -9 15 0 9 -7 18 -15 21
-8 4 -15 12 -15 19 0 8 -6 20 -13 27 -19 21 -36 50 -48 81 -6 15 -15 27 -19
27 -5 0 -11 13 -15 30 -4 16 -10 30 -15 30 -5 0 -11 13 -15 30 -4 16 -10 30
-15 30 -5 0 -11 13 -15 30 -4 16 -11 32 -16 35 -5 4 -9 14 -9 23 0 9 -6 29
-14 44 -8 15 -17 42 -21 60 -4 18 -11 38 -15 43 -4 6 -11 28 -15 50 -4 22 -10
44 -13 50 -11 16 -31 149 -42 272 -11 125 -1 312 24 433 25 126 40 185 47 190
4 3 10 21 14 40 4 19 11 41 16 50 5 8 18 38 29 65 33 79 84 179 97 193 7 7 13
20 13 28 0 8 4 14 9 14 5 0 11 10 15 23 3 12 17 34 31 49 14 15 25 31 25 36 0
5 9 17 20 27 11 10 20 22 20 27 0 4 8 16 18 27 9 10 35 40 57 67 22 26 48 56
58 66 9 10 17 20 17 23 0 11 168 167 232 215 11 8 33 27 49 43 16 15 32 27 35
27 5 0 66 41 74 51 3 3 12 9 20 12 8 4 29 16 45 27 17 11 41 25 55 32 14 7 27
15 30 18 10 10 157 80 168 80 7 0 12 4 12 9 0 5 13 12 30 16 16 4 32 11 35 16
4 5 14 9 23 9 9 1 35 9 57 20 22 11 46 19 53 20 7 0 20 4 30 9 23 13 108 38
157 47 22 3 45 9 50 13 40 25 391 65 560 65 148 -1 381 -23 505 -48 151 -31
195 -41 205 -48 6 -3 28 -9 49 -13 22 -5 51 -14 65 -21 14 -8 36 -14 49 -14
12 0 22 -4 22 -8 0 -4 34 -18 75 -31 41 -13 75 -28 75 -33 0 -4 6 -8 13 -8 7
0 29 -9 50 -20 20 -11 43 -20 51 -20 8 0 16 -3 18 -7 2 -5 39 -26 83 -48 44
-22 82 -43 85 -46 3 -3 13 -10 22 -15 14 -8 15 -13 5 -31 -7 -12 -23 -43 -37
-70 -14 -26 -29 -53 -35 -59 -5 -6 -19 -28 -30 -50 -11 -21 -26 -45 -32 -52
-7 -7 -13 -19 -13 -27 0 -7 -3 -15 -7 -17 -5 -1 -17 -20 -28 -42 -22 -44 -43
-56 -57 -33 -5 10 -16 17 -23 17 -8 0 -15 4 -15 9 0 5 -10 13 -22 17 -13 4
-25 9 -28 13 -14 17 -202 111 -222 111 -10 0 -18 4 -18 9 0 5 -15 13 -32 16
-18 4 -37 11 -43 15 -14 10 -145 50 -165 50 -9 0 -20 4 -26 9 -15 15 -161 38
-390 62 -84 9 -137 8 -220 -1 -234 -25 -371 -46 -389 -60 -5 -4 -27 -11 -49
-14 -21 -4 -46 -11 -55 -16 -9 -5 -45 -19 -81 -31 -36 -13 -76 -29 -90 -36
-14 -7 -31 -13 -37 -13 -7 0 -13 -4 -13 -10 0 -5 -7 -10 -16 -10 -17 0 -97
-41 -102 -52 -2 -5 -9 -8 -16 -8 -6 0 -35 -16 -65 -35 -29 -19 -56 -35 -61
-35 -5 0 -10 -3 -12 -7 -1 -5 -25 -24 -53 -43 -51 -34 -61 -43 -149 -121 -117
-104 -306 -319 -306 -348 0 -5 -4 -11 -9 -13 -10 -4 -81 -150 -81 -167 0 -6
-4 -11 -10 -11 -5 0 -12 -16 -16 -37 -4 -20 -13 -48 -20 -62 -8 -14 -14 -38
-14 -53 0 -14 -4 -28 -9 -30 -24 -8 -49 -314 -32 -393 5 -27 14 -75 20 -105
16 -89 32 -154 42 -164 5 -6 9 -17 9 -25 1 -9 9 -34 20 -56 11 -22 19 -46 20
-52 0 -7 5 -13 10 -13 6 0 10 -7 10 -16 0 -17 41 -97 53 -102 4 -2 7 -8 7 -14
0 -13 71 -132 82 -136 4 -2 8 -9 8 -16 0 -11 9 -25 50 -73 5 -7 10 -16 10 -21
0 -5 8 -16 19 -26 18 -16 18 -14 4 56 -8 40 -19 114 -24 163 -13 108 -6 520 9
538 5 6 13 37 17 67 9 72 29 136 75 245 19 44 32 71 75 155 5 11 13 20 17 20
5 0 8 5 8 11 0 6 8 21 18 34 9 12 24 33 32 45 8 12 30 39 47 59 18 20 33 39
33 43 0 13 132 139 199 190 36 28 68 54 69 59 2 5 8 9 13 9 9 0 65 36 79 50
10 10 157 80 168 80 7 0 12 5 12 10 0 6 8 10 18 10 9 0 29 6 44 14 15 8 42 17
60 21 18 4 38 10 43 14 12 7 108 28 190 41 79 13 371 13 460 1 87 -12 181 -34
218 -49 16 -7 35 -12 43 -12 8 0 22 -4 32 -10 9 -5 40 -19 67 -30 75 -31 118
-54 133 -67 7 -7 20 -13 28 -13 8 0 14 -4 14 -10 0 -5 6 -10 14 -10 7 0 43
-23 80 -50 37 -28 68 -50 70 -50 11 0 212 -194 276 -266 27 -31 35 -35 38 -21
2 9 7 17 10 17 4 0 19 21 32 47 14 26 31 54 38 61 6 7 12 20 12 28 0 8 5 14
10 14 6 0 10 5 10 11 0 6 22 48 50 94 27 46 50 88 50 94 0 6 4 11 8 11 4 0 13
12 20 28 6 15 25 50 42 77 17 28 36 61 43 75 6 14 15 27 19 30 4 3 12 17 18
30 5 14 19 39 30 55 10 17 29 50 42 75 13 25 28 50 33 56 6 6 19 28 30 50 11
21 26 45 33 52 6 7 12 20 12 28 0 8 5 14 10 14 6 0 10 5 10 11 0 6 22 48 50
94 28 46 50 87 50 93 0 6 3 12 8 14 4 2 18 24 31 50 l25 46 -25 26 c-13 14
-30 26 -36 26 -7 0 -13 4 -13 9 0 5 -8 12 -17 15 -10 3 -29 16 -43 28 -37 33
-88 68 -99 68 -5 0 -11 3 -13 8 -5 10 -66 52 -77 52 -5 0 -11 4 -13 8 -4 11
-123 82 -137 82 -6 0 -11 4 -11 8 0 4 -15 15 -32 23 -18 9 -60 29 -93 46 -81
42 -152 73 -164 73 -6 0 -11 4 -11 9 0 5 -14 12 -31 16 -17 4 -42 13 -57 21
-15 8 -32 14 -38 14 -7 0 -25 7 -40 15 -16 8 -39 15 -51 15 -13 0 -23 4 -23 9
0 6 -20 13 -45 17 -25 3 -48 10 -50 15 -3 4 -27 11 -53 15 -26 3 -51 10 -57
14 -5 5 -32 11 -60 15 -27 3 -59 10 -70 15 -22 10 -113 25 -250 41 -49 5 -124
14 -166 20 -76 11 -498 9 -505 -2z"/>
<path d="M6850 3080 l0 -1400 233 0 c127 0 262 -3 300 -7 l67 -6 0 1247 0
1246 480 0 480 0 0 160 0 160 -780 0 -780 0 0 -1400z"/>
<path d="M9343 3870 c-546 -77 -837 -521 -809 -1235 20 -522 221 -831 621
-955 150 -46 401 -64 555 -40 211 34 415 159 552 339 26 35 48 67 48 71 0 5
-45 42 -100 85 l-101 77 -22 -29 c-78 -100 -179 -179 -287 -224 -48 -20 -72
-23 -190 -24 -131 0 -137 1 -202 32 -143 67 -207 177 -243 413 -8 52 -15 130
-15 172 l0 78 577 2 578 3 11 53 c21 93 26 232 14 361 -41 442 -241 711 -595
801 -92 24 -294 34 -392 20z m293 -316 c104 -64 143 -181 151 -461 l6 -183
-323 0 -323 0 6 118 c15 273 71 448 165 513 59 41 92 49 184 46 76 -3 92 -7
134 -33z"/>
<path d="M11635 3864 c-97 -21 -245 -94 -327 -160 l-68 -55 -19 43 c-10 24
-26 64 -36 91 l-18 47 -238 0 -239 0 0 -1625 0 -1625 123 5 c67 3 197 8 290
11 l167 6 0 595 0 595 35 -26 c109 -83 249 -126 441 -133 212 -8 355 28 500
128 192 131 331 387 390 714 25 142 26 490 0 630 -71 396 -282 668 -581 751
-86 24 -328 28 -420 8z m153 -356 c106 -40 175 -143 214 -320 25 -118 37 -518
19 -687 -29 -272 -102 -426 -234 -491 -155 -76 -362 -49 -481 63 l-36 34 0
622 0 622 45 48 c53 57 147 110 225 128 70 16 177 8 248 -19z"/>
<path d="M16106 3869 c-358 -52 -620 -272 -735 -614 -52 -157 -65 -257 -65
-500 0 -243 13 -343 65 -500 103 -306 317 -509 625 -592 91 -24 115 -27 304
-27 184 -1 214 2 295 23 302 78 524 275 636 565 126 326 112 838 -30 1141
-135 287 -367 455 -698 504 -83 13 -311 12 -397 0z m360 -322 c113 -58 174
-188 206 -439 16 -132 16 -580 0 -708 -24 -183 -68 -310 -131 -382 -69 -79
-203 -114 -319 -84 -122 31 -185 97 -236 249 -46 138 -70 458 -55 758 19 394
96 574 269 630 14 5 68 7 120 6 80 -3 103 -7 146 -30z"/>
<path d="M13040 2750 l0 -1080 815 0 c448 0 815 -3 815 -7 0 -5 16 -143 35
-307 19 -165 35 -303 35 -308 0 -4 69 -8 154 -8 l155 0 5 43 c3 23 17 218 31
432 14 215 27 411 30 438 l6 47 -146 0 -145 0 0 915 0 915 -290 0 -290 0 0
-915 0 -915 -315 0 -315 0 0 915 0 915 -290 0 -290 0 0 -1080z"/>
<path d="M17690 2750 l0 -1080 290 0 290 0 0 920 0 920 365 0 365 0 0 160 0
160 -655 0 -655 0 0 -1080z"/>
</g>
</svg>
